<svg width="914" height="400" fill="none" xmlns="http://www.w3.org/2000/svg">
  <path fill="#fff" d="M0 0h914v400H0z"/>
  <path d="M442.818 209c.7 0 1.26-.56 1.26-1.26s-.56-1.26-1.26-1.26h-.672v-2.604l1.176-1.064 3.724 5.6c.224.336.56.588 1.092.588h2.072c.7 0 1.26-.56 1.26-1.26s-.56-1.26-1.26-1.26h-1.064l-3.836-5.488 2.464-2.184h1.456c.7 0 1.26-.56 1.26-1.26s-.56-1.26-1.26-1.26h-1.96c-.364 0-.588.112-.868.364l-4.256 3.948v-10.08c0-.812-.616-1.456-1.428-1.456h-2.268c-.7 0-1.26.56-1.26 1.26 0 .728.56 1.26 1.26 1.26h.672v14.896h-.672c-.7 0-1.26.56-1.26 1.26 0 .728.56 1.26 1.26 1.26h4.368zm15.236 0c.7 0 1.26-.56 1.26-1.26s-.56-1.26-1.26-1.26h-.672v-4.816c0-1.736.7-3.024 2.8-3.024 1.82 0 2.464 1.092 2.464 2.688v5.152h-.672c-.7 0-1.26.56-1.26 1.26 0 .728.56 1.26 1.26 1.26h4.368c.7 0 1.26-.56 1.26-1.26s-.56-1.26-1.26-1.26h-.672v-5.712c0-2.436-.896-4.872-4.704-4.872-1.876 0-3.052.868-3.584 1.68 0-.812-.616-1.288-1.428-1.288h-2.268c-.7 0-1.26.56-1.26 1.26 0 .728.56 1.26 1.26 1.26h.672v7.672h-.672c-.7 0-1.26.56-1.26 1.26 0 .728.56 1.26 1.26 1.26h4.368zm17.05 0c.7 0 1.26-.56 1.26-1.26s-.56-1.26-1.26-1.26h-1.316v-7.672h1.876c.7 0 1.26-.56 1.26-1.26s-.56-1.26-1.26-1.26h-1.876v-2.492c0-1.232.784-2.1 2.324-2.1h1.176c.728 0 1.316-.588 1.316-1.316 0-.728-.588-1.316-1.316-1.316H476c-3.528 0-5.236 2.38-5.236 4.956v2.268h-.588c-.7 0-1.26.56-1.26 1.26s.56 1.26 1.26 1.26h.588v7.672h-.672c-.7 0-1.26.56-1.26 1.26 0 .728.56 1.26 1.26 1.26h5.012z" fill="#333"/>
</svg>
